<?xml version="1.0" encoding="UTF-8"?>
<svg width="200" height="200" viewBox="0 0 200 200" xmlns="http://www.w3.org/2000/svg">
    <!-- Background circle -->
    <circle cx="100" cy="100" r="90" fill="#f8f9fa" stroke="#dee2e6" stroke-width="2"/>
    
    <!-- Input Layer -->
    <g transform="translate(35, 60)">
        <rect x="0" y="0" width="30" height="30" fill="#6c757d" opacity="0.8"/>
        <rect x="5" y="5" width="20" height="20" fill="#6c757d"/>
        <g stroke="#ffffff" stroke-width="1">
            <line x1="10" y1="15" x2="25" y2="15"/>
            <line x1="15" y1="10" x2="15" y2="25"/>
        </g>
    </g>
    
    <!-- Encoder -->
    <g transform="translate(75, 50)">
        <rect x="0" y="0" width="20" height="20" fill="#0d6efd" opacity="0.8"/>
        <rect x="5" y="5" width="10" height="10" fill="#0d6efd"/>
    </g>
    
    <!-- Latent Space -->
    <g transform="translate(75, 80)">
        <rect x="0" y="0" width="20" height="20" fill="#0dcaf0" opacity="0.8"/>
        <circle cx="10" cy="10" r="5" fill="#0dcaf0"/>
    </g>
    
    <!-- Decoder -->
    <g transform="translate(75, 110)">
        <rect x="0" y="0" width="20" height="20" fill="#198754" opacity="0.8"/>
        <rect x="5" y="5" width="10" height="10" fill="#198754"/>
    </g>
    
    <!-- Output Layer -->
    <g transform="translate(115, 60)">
        <rect x="0" y="0" width="30" height="30" fill="#6c757d" opacity="0.8"/>
        <rect x="5" y="5" width="20" height="20" fill="#6c757d"/>
        <g stroke="#ffffff" stroke-width="1">
            <line x1="10" y1="15" x2="25" y2="15"/>
            <line x1="15" y1="10" x2="15" y2="25"/>
        </g>
    </g>
    
    <!-- Connections -->
    <g stroke="#adb5bd" stroke-width="1">
        <!-- Input to Encoder -->
        <line x1="65" y1="75" x2="75" y2="60"/>
        
        <!-- Encoder to Latent -->
        <line x1="85" y1="70" x2="85" y2="80"/>
        
        <!-- Latent to Decoder -->
        <line x1="85" y1="100" x2="85" y2="110"/>
        
        <!-- Decoder to Output -->
        <line x1="95" y1="120" x2="115" y2="75"/>
    </g>
    
    <!-- Arrows -->
    <g stroke="#0d6efd" stroke-width="1" fill="none">
        <path d="M50,75 L60,75" marker-end="url(#arrowhead)"/>
        <path d="M90,75 L100,75" marker-end="url(#arrowhead)"/>
    </g>
    
    <!-- Arrow marker definition -->
    <defs>
        <marker id="arrowhead" markerWidth="10" markerHeight="7" refX="9" refY="3.5" orient="auto">
            <polygon points="0 0, 10 3.5, 0 7" fill="#0d6efd"/>
        </marker>
    </defs>
</svg> 