<?xml version="1.0" encoding="UTF-8"?>
<svg width="200" height="200" viewBox="0 0 200 200" xmlns="http://www.w3.org/2000/svg">
    <!-- Background circle -->
    <circle cx="100" cy="100" r="90" fill="#f8f9fa" stroke="#dee2e6" stroke-width="2"/>
    
    <!-- Input Image -->
    <g transform="translate(40, 60)">
        <rect x="0" y="0" width="40" height="40" fill="#6c757d" opacity="0.8"/>
        <rect x="5" y="5" width="30" height="30" fill="#6c757d" opacity="0.6"/>
        <rect x="10" y="10" width="20" height="20" fill="#6c757d" opacity="0.4"/>
    </g>
    
    <!-- Convolutional Layer -->
    <g transform="translate(90, 50)">
        <rect x="0" y="0" width="30" height="30" fill="#0d6efd" opacity="0.8"/>
        <rect x="5" y="5" width="20" height="20" fill="#0d6efd" opacity="0.6"/>
        <rect x="10" y="10" width="10" height="10" fill="#0d6efd" opacity="0.4"/>
    </g>
    
    <!-- Pooling Layer -->
    <g transform="translate(90, 100)">
        <rect x="0" y="0" width="30" height="30" fill="#0dcaf0" opacity="0.8"/>
        <rect x="5" y="5" width="20" height="20" fill="#0dcaf0" opacity="0.6"/>
        <rect x="10" y="10" width="10" height="10" fill="#0dcaf0" opacity="0.4"/>
    </g>
    
    <!-- Fully Connected Layer -->
    <g transform="translate(140, 75)">
        <circle cx="0" cy="0" r="8" fill="#198754"/>
        <circle cx="0" cy="20" r="8" fill="#198754"/>
        <circle cx="0" cy="40" r="8" fill="#198754"/>
    </g>
    
    <!-- Connections -->
    <g stroke="#adb5bd" stroke-width="1">
        <!-- Input to Conv -->
        <line x1="80" y1="80" x2="90" y2="65"/>
        <line x1="80" y1="80" x2="90" y2="80"/>
        <line x1="80" y1="80" x2="90" y2="95"/>
        
        <!-- Conv to Pool -->
        <line x1="120" y1="65" x2="120" y2="100"/>
        <line x1="120" y1="80" x2="120" y2="115"/>
        <line x1="120" y1="95" x2="120" y2="130"/>
        
        <!-- Pool to FC -->
        <line x1="120" y1="115" x2="140" y2="75"/>
        <line x1="120" y1="115" x2="140" y2="95"/>
        <line x1="120" y1="115" x2="140" y2="115"/>
    </g>
</svg> 