<?xml version="1.0" encoding="UTF-8"?>
<svg width="200" height="200" viewBox="0 0 200 200" xmlns="http://www.w3.org/2000/svg">
    <!-- Background circle -->
    <circle cx="100" cy="100" r="90" fill="#f8f9fa" stroke="#dee2e6" stroke-width="2"/>
    
    <!-- Generator -->
    <g transform="translate(35, 60)">
        <rect x="0" y="0" width="40" height="40" fill="#0d6efd" opacity="0.8"/>
        <circle cx="20" cy="20" r="15" fill="#0d6efd"/>
        <g stroke="#ffffff" stroke-width="1">
            <line x1="10" y1="20" x2="30" y2="20"/>
            <line x1="20" y1="10" x2="20" y2="30"/>
        </g>
    </g>
    
    <!-- Generated Output -->
    <g transform="translate(95, 60)">
        <rect x="0" y="0" width="30" height="30" fill="#0dcaf0" opacity="0.8"/>
        <rect x="5" y="5" width="20" height="20" fill="#0dcaf0"/>
        <g stroke="#ffffff" stroke-width="1">
            <line x1="10" y1="15" x2="25" y2="15"/>
            <line x1="15" y1="10" x2="15" y2="25"/>
        </g>
    </g>
    
    <!-- Discriminator -->
    <g transform="translate(145, 60)">
        <rect x="0" y="0" width="40" height="40" fill="#198754" opacity="0.8"/>
        <circle cx="20" cy="20" r="15" fill="#198754"/>
        <g stroke="#ffffff" stroke-width="1">
            <line x1="10" y1="20" x2="30" y2="20"/>
            <line x1="20" y1="10" x2="20" y2="30"/>
        </g>
    </g>
    
    <!-- Real Data -->
    <g transform="translate(95, 120)">
        <rect x="0" y="0" width="30" height="30" fill="#6c757d" opacity="0.8"/>
        <rect x="5" y="5" width="20" height="20" fill="#6c757d"/>
        <g stroke="#ffffff" stroke-width="1">
            <line x1="10" y1="15" x2="25" y2="15"/>
            <line x1="15" y1="10" x2="15" y2="25"/>
        </g>
    </g>
    
    <!-- Connections -->
    <g stroke="#adb5bd" stroke-width="1">
        <!-- Generator to Output -->
        <line x1="75" y1="80" x2="95" y2="75"/>
        
        <!-- Output to Discriminator -->
        <line x1="125" y1="75" x2="145" y2="80"/>
        
        <!-- Real Data to Discriminator -->
        <line x1="110" y1="120" x2="145" y2="100"/>
    </g>
    
    <!-- Feedback Arrows -->
    <g stroke="#0d6efd" stroke-width="1" fill="none">
        <path d="M165,80 C175,60 175,60 185,60" marker-end="url(#arrowhead)"/>
        <path d="M185,60 C175,40 175,40 165,40" marker-end="url(#arrowhead)"/>
    </g>
    
    <!-- Arrow marker definition -->
    <defs>
        <marker id="arrowhead" markerWidth="10" markerHeight="7" refX="9" refY="3.5" orient="auto">
            <polygon points="0 0, 10 3.5, 0 7" fill="#0d6efd"/>
        </marker>
    </defs>
</svg> 