<?xml version="1.0" encoding="UTF-8"?>
<svg width="200" height="200" viewBox="0 0 200 200" xmlns="http://www.w3.org/2000/svg">
    <!-- Background -->
    <rect width="200" height="200" fill="#f5f5f5"/>
    
    <!-- Surface -->
    <path d="M20,50 Q100,150 180,50" fill="none" stroke="#2196F3" stroke-width="2" opacity="0.3"/>
    <path d="M20,70 Q100,170 180,70" fill="none" stroke="#2196F3" stroke-width="2" opacity="0.3"/>
    <path d="M20,90 Q100,190 180,90" fill="none" stroke="#2196F3" stroke-width="2" opacity="0.3"/>
    
    <!-- Gradient descent path -->
    <path d="M20,50 L40,80 L60,100 L80,110 L100,120 L120,110 L140,100 L160,80 L180,50" 
          fill="none" stroke="#F44336" stroke-width="2"/>
    
    <!-- Points along the path -->
    <circle cx="20" cy="50" r="3" fill="#F44336"/>
    <circle cx="40" cy="80" r="3" fill="#F44336"/>
    <circle cx="60" cy="100" r="3" fill="#F44336"/>
    <circle cx="80" cy="110" r="3" fill="#F44336"/>
    <circle cx="100" cy="120" r="3" fill="#F44336"/>
    <circle cx="120" cy="110" r="3" fill="#F44336"/>
    <circle cx="140" cy="100" r="3" fill="#F44336"/>
    <circle cx="160" cy="80" r="3" fill="#F44336"/>
    <circle cx="180" cy="50" r="3" fill="#F44336"/>
    
    <!-- Arrows -->
    <path d="M30,65 L35,75 L40,65" fill="#F44336"/>
    <path d="M50,90 L55,100 L60,90" fill="#F44336"/>
    <path d="M70,105 L75,115 L80,105" fill="#F44336"/>
    <path d="M90,115 L95,125 L100,115" fill="#F44336"/>
    <path d="M110,115 L115,125 L120,115" fill="#F44336"/>
    <path d="M130,105 L135,115 L140,105" fill="#F44336"/>
    <path d="M150,90 L155,100 L160,90" fill="#F44336"/>
    <path d="M170,65 L175,75 L180,65" fill="#F44336"/>
</svg> 